# xmcd
#
# Track frame offsets:
#	150
#	12418
#	22976
#	31430
#	44865
#	54562
#	64890
#	70902
#	81006
#	93442
#	106035
#	114106
#	123631
#	134666
#	146586
#	154208
#
# Disc length: 2170 seconds
#
# Revision: 0
# Processed by: cddbd v1.4PL0 Copyright (c) Steve Scherf et al.
# Submitted via: dBpowerAMP V4.0
#
DISCID=e0087810
DTITLE=Raymond Fairchild - 16 All Time Favorites
DYEAR=1900
DGENRE=Bluegrass
TTITLE0=The World Is Waiting For The Sunrise
TTITLE1=Precious Memories
TTITLE2=San Antonio Rose
TTITLE3=Faded Love
TTITLE4=Take Me Back To Tulsa
TTITLE5=Garfield March
TTITLE6=Ida Red
TTITLE7=Little Liza Jane
TTITLE8=Beer Barrel Polka
TTITLE9=Wednesday Night Waltz
TTITLE10=Steel Guitar Rag
TTITLE11=Lost John
TTITLE12=This Train
TTITLE13=KnoXVIlle Girl
TTITLE14=Flop Eared Mule
TTITLE15=Mississippi Sawyer
EXTD=hale
EXTT0=
EXTT1=
EXTT2=
EXTT3=
EXTT4=
EXTT5=
EXTT6=
EXTT7=
EXTT8=
EXTT9=
EXTT10=
EXTT11=
EXTT12=
EXTT13=
EXTT14=
EXTT15=
PLAYORDER=
